<svg width="82" height="80" viewBox="0 0 82 80" fill="none" xmlns="http://www.w3.org/2000/svg">
<g id="acm_logo_tablet.svg">
<path id="Vector" d="M46 0H214.919L255 41.104L215.673 79.967H46V0Z" fill="white"/>
<g id="Group">
<g id="Group_2">
<path id="Vector_2" d="M46 76L10 40L46 4L82 40L46 76Z" fill="url(#paint0_linear_74_1763)"/>
<path id="Vector_3" d="M46.0002 62.072C58.1903 62.072 68.0722 52.19 68.0722 40C68.0722 27.8099 58.1903 17.928 46.0002 17.928C33.8102 17.928 23.9282 27.8099 23.9282 40C23.9282 52.19 33.8102 62.072 46.0002 62.072Z" fill="#FFFFFE"/>
<path id="Vector_4" d="M45.9998 59.865C56.9709 59.865 65.8648 50.9711 65.8648 40C65.8648 29.0289 56.9709 20.135 45.9998 20.135C35.0286 20.135 26.1348 29.0289 26.1348 40C26.1348 50.9711 35.0286 59.865 45.9998 59.865Z" fill="url(#paint1_linear_74_1763)"/>
<g id="Group_3">
<g id="Group_4">
<path id="Vector_5" d="M34.4338 43.867C34.2308 44.037 34.0468 44.189 33.8868 44.324C33.7248 44.463 33.5078 44.599 33.2368 44.734C32.9708 44.863 32.7118 44.963 32.4598 45.027C32.2078 45.089 31.8558 45.127 31.4028 45.127C30.5588 45.127 29.8578 44.844 29.3008 44.275C28.7418 43.709 28.4648 42.994 28.4648 42.129C28.4648 41.416 28.6058 40.848 28.8888 40.408C29.1718 39.97 29.5798 39.625 30.1118 39.369C30.6508 39.109 31.2918 38.928 32.0398 38.824C32.7878 38.722 33.5908 38.642 34.4518 38.586V38.535C34.4518 38.008 34.2568 37.644 33.8698 37.443C33.4808 37.24 32.9008 37.14 32.1238 37.14C31.7738 37.14 31.3638 37.204 30.8938 37.333C30.4248 37.462 29.9658 37.626 29.5188 37.825H29.2648V35.51C29.5598 35.424 30.0358 35.324 30.6968 35.207C31.3548 35.09 32.0188 35.031 32.6888 35.031C34.3368 35.031 35.5388 35.306 36.2908 35.855C37.0428 36.402 37.4198 37.24 37.4198 38.365V44.879H34.4358V43.867H34.4338ZM34.4338 42.377V40.395C33.9318 40.446 33.5278 40.491 33.2188 40.525C32.9078 40.562 32.6038 40.632 32.3068 40.743C32.0468 40.833 31.8458 40.971 31.7018 41.154C31.5588 41.337 31.4868 41.583 31.4868 41.883C31.4868 42.33 31.6078 42.635 31.8458 42.805C32.0838 42.971 32.4378 43.051 32.9068 43.051C33.1648 43.051 33.4278 42.992 33.6998 42.875C33.9688 42.76 34.2128 42.59 34.4338 42.377Z" fill="#FFFFFE"/>
<path id="Vector_6" d="M43.9669 45.127C43.1759 45.127 42.4509 45.027 41.7949 44.828C41.1389 44.633 40.5679 44.324 40.0859 43.908C39.6069 43.496 39.2339 42.976 38.9669 42.349C38.6999 41.722 38.5669 40.984 38.5669 40.129C38.5669 39.215 38.7119 38.438 39.0029 37.795C39.2919 37.156 39.6849 36.629 40.1809 36.213C40.6579 35.817 41.2179 35.522 41.8649 35.334C42.5109 35.145 43.1829 35.047 43.8829 35.047C44.4119 35.047 44.9419 35.109 45.4709 35.233C45.9999 35.352 46.5319 35.549 47.0669 35.815V38.376H46.6799C46.5609 38.263 46.4139 38.138 46.2409 38.001C46.0679 37.864 45.8779 37.737 45.6729 37.624C45.4579 37.503 45.2119 37.403 44.9409 37.321C44.6679 37.239 44.3629 37.198 44.0269 37.198C43.2629 37.198 42.6729 37.462 42.2559 37.993C41.8379 38.522 41.6289 39.233 41.6289 40.13C41.6289 41.087 41.8519 41.804 42.2989 42.273C42.7459 42.743 43.3379 42.98 44.0779 42.98C44.4529 42.98 44.7829 42.935 45.0679 42.851C45.3529 42.769 45.5969 42.663 45.8019 42.546C46.0009 42.429 46.1709 42.308 46.3139 42.179C46.4569 42.054 46.5799 41.939 46.6809 41.837H47.0659V44.388C46.8939 44.46 46.6969 44.544 46.4719 44.644C46.2469 44.738 46.0189 44.816 45.7859 44.878C45.4949 44.958 45.2239 45.021 44.9699 45.062C44.7169 45.104 44.3809 45.127 43.9669 45.127Z" fill="#FFFFFE"/>
<path id="Vector_7" d="M60.0758 44.881V40.098C60.0758 39.627 60.0658 39.229 60.0508 38.905C60.0328 38.583 59.9828 38.317 59.8968 38.112C59.8108 37.909 59.6778 37.758 59.4988 37.665C59.3198 37.572 59.0668 37.524 58.7408 37.524C58.5138 37.524 58.2878 37.575 58.0668 37.67C57.8438 37.772 57.5998 37.914 57.3378 38.096V44.881H54.3538V40.098C54.3538 39.633 54.3438 39.237 54.3248 38.909C54.3038 38.583 54.2528 38.317 54.1668 38.112C54.0808 37.909 53.9478 37.758 53.7688 37.665C53.5898 37.572 53.3388 37.524 53.0208 37.524C52.7768 37.524 52.5368 37.581 52.3018 37.694C52.0678 37.809 51.8388 37.942 51.6178 38.096V44.881H48.6338V35.319H51.6178V36.374C52.1038 35.958 52.5648 35.636 52.9968 35.403C53.4288 35.169 53.9128 35.051 54.4518 35.051C55.0378 35.051 55.5518 35.192 55.9928 35.469C56.4358 35.748 56.7738 36.162 57.0068 36.713C57.5808 36.18 58.1218 35.77 58.6298 35.483C59.1378 35.196 59.6528 35.051 60.1748 35.051C60.6178 35.051 61.0148 35.123 61.3658 35.266C61.7198 35.409 62.0158 35.62 62.2608 35.905C62.5288 36.212 62.7278 36.575 62.8608 36.999C62.9958 37.423 63.0618 37.976 63.0618 38.655V44.882L60.0758 44.881Z" fill="#FFFFFE"/>
</g>
</g>
</g>
</g>
</g>
<defs>
<linearGradient id="paint0_linear_74_1763" x1="46.0009" y1="3.99892" x2="46.0009" y2="75.9987" gradientUnits="userSpaceOnUse">
<stop stop-color="#66B9E2"/>
<stop offset="0.1343" stop-color="#60B7E1"/>
<stop offset="0.31" stop-color="#50B0DE"/>
<stop offset="0.5087" stop-color="#35A4D9"/>
<stop offset="0.7228" stop-color="#0F95D2"/>
<stop offset="0.8" stop-color="#008ECF"/>
</linearGradient>
<linearGradient id="paint1_linear_74_1763" x1="45.9998" y1="59.8647" x2="45.9998" y2="18.782" gradientUnits="userSpaceOnUse">
<stop stop-color="#76BFE4"/>
<stop offset="0.1226" stop-color="#70BDE3"/>
<stop offset="0.283" stop-color="#60B6E0"/>
<stop offset="0.4644" stop-color="#45ABDB"/>
<stop offset="0.6598" stop-color="#1F9BD5"/>
<stop offset="0.8" stop-color="#008ECF"/>
</linearGradient>
</defs>
</svg>
